<?xml version="1.0" encoding="utf-8"?>
<!-- Generator: Adobe Illustrator 23.0.0, SVG Export Plug-In . SVG Version: 6.00 Build 0)  -->
<svg version="1.1" id="Слой_1" xmlns="http://www.w3.org/2000/svg" xmlns:xlink="http://www.w3.org/1999/xlink" x="0px" y="0px"
	 viewBox="0 0 14.66 15.15" style="enable-background:new 0 0 14.66 15.15;" xml:space="preserve">
<style type="text/css">
	.st0{fill:#FEC00F;}
</style>
<g>
	<path class="st0" d="M5.77,15.15v-3.7c0-0.29,0.02-0.57,0.05-0.87c0.04-0.29,0.1-0.56,0.18-0.8c-0.19,0.2-0.39,0.38-0.62,0.53
		c-0.23,0.16-0.47,0.31-0.73,0.47l-3.12,1.82L0,10.06l3.12-1.82c0.27-0.16,0.54-0.29,0.81-0.41c0.27-0.11,0.55-0.2,0.83-0.26
		C4.48,7.53,4.2,7.44,3.93,7.32C3.66,7.2,3.39,7.06,3.12,6.9L0,5.04l1.54-2.56l3.12,1.88c0.26,0.16,0.5,0.32,0.74,0.48
		C5.63,5,5.84,5.18,6.03,5.39C5.85,4.9,5.77,4.35,5.77,3.74V0h3.12v3.7c0,0.3-0.02,0.59-0.05,0.88C8.8,4.86,8.74,5.13,8.65,5.39
		C8.84,5.18,9.05,5,9.27,4.84C9.5,4.68,9.74,4.52,10,4.36l3.12-1.84l1.54,2.56L11.54,6.9c-0.29,0.16-0.56,0.29-0.83,0.41
		c-0.27,0.11-0.55,0.2-0.83,0.26c0.28,0.06,0.57,0.15,0.84,0.27c0.28,0.12,0.55,0.26,0.82,0.42l3.12,1.86l-1.54,2.54L10,10.79
		c-0.27-0.16-0.52-0.32-0.75-0.48c-0.23-0.16-0.44-0.34-0.64-0.55c0.18,0.5,0.28,1.05,0.28,1.65v3.74H5.77z"/>
</g>
</svg>
