<?xml version="1.0" encoding="utf-8"?>
<!-- Generator: Adobe Illustrator 23.0.0, SVG Export Plug-In . SVG Version: 6.00 Build 0)  -->
<svg version="1.1" id="Слой_1" xmlns="http://www.w3.org/2000/svg" xmlns:xlink="http://www.w3.org/1999/xlink" x="0px" y="0px"
	 viewBox="0 0 146.8 15.7" style="enable-background:new 0 0 146.8 15.7;" xml:space="preserve">
<style type="text/css">
	.st0{fill:#FEC00F;}
	.st1{fill:#FFFFFF;}
</style>
<g>
	<path class="st0" d="M0,4.82h2.56c0.23,0,0.42,0.05,0.59,0.15c0.17,0.1,0.27,0.24,0.3,0.4l1.08,4.81c0.08,0.37,0.16,0.72,0.23,1.06
		c0.07,0.34,0.13,0.69,0.19,1.02c0.1-0.34,0.2-0.68,0.3-1.02c0.11-0.34,0.21-0.7,0.32-1.07l1.34-4.82c0.04-0.16,0.14-0.29,0.3-0.4
		c0.16-0.11,0.34-0.16,0.55-0.16h1.43c0.23,0,0.42,0.05,0.58,0.16c0.16,0.11,0.26,0.24,0.3,0.4l1.28,4.82
		c0.1,0.37,0.2,0.72,0.3,1.06c0.1,0.34,0.19,0.69,0.28,1.04c0.06-0.34,0.12-0.69,0.2-1.03c0.08-0.34,0.16-0.7,0.25-1.08l1.14-4.81
		c0.03-0.17,0.13-0.3,0.3-0.4s0.35-0.15,0.55-0.15h2.44l-3.33,10.72h-2.61c-0.14,0-0.25-0.04-0.35-0.12
		c-0.1-0.08-0.17-0.22-0.23-0.41L8.77,9.65C8.7,9.41,8.63,9.18,8.57,8.94C8.51,8.71,8.45,8.47,8.4,8.24
		C8.36,8.48,8.3,8.72,8.24,8.96c-0.06,0.24-0.13,0.48-0.2,0.72L6.49,15c-0.1,0.36-0.33,0.54-0.68,0.54H3.33L0,4.82z"/>
	<path class="st0" d="M24.71,4.65c0.71,0,1.36,0.11,1.95,0.33c0.59,0.22,1.1,0.54,1.52,0.96c0.42,0.42,0.75,0.94,0.99,1.55
		c0.24,0.61,0.36,1.3,0.36,2.07c0,0.24-0.01,0.44-0.03,0.59c-0.02,0.15-0.06,0.27-0.11,0.36c-0.05,0.09-0.13,0.15-0.22,0.19
		c-0.09,0.03-0.21,0.05-0.36,0.05h-6.18c0.1,0.9,0.38,1.55,0.82,1.95c0.44,0.4,1.01,0.61,1.71,0.61c0.37,0,0.69-0.04,0.96-0.13
		c0.27-0.09,0.51-0.19,0.72-0.3c0.21-0.11,0.4-0.21,0.58-0.3c0.18-0.09,0.36-0.13,0.55-0.13c0.25,0,0.45,0.09,0.58,0.28l0.93,1.15
		c-0.33,0.38-0.69,0.69-1.07,0.93c-0.38,0.24-0.78,0.42-1.18,0.56c-0.4,0.13-0.81,0.23-1.21,0.28c-0.4,0.05-0.79,0.08-1.15,0.08
		c-0.75,0-1.46-0.12-2.11-0.37c-0.66-0.25-1.23-0.61-1.73-1.09c-0.49-0.48-0.88-1.08-1.17-1.8c-0.29-0.72-0.43-1.55-0.43-2.5
		c0-0.72,0.12-1.4,0.37-2.04c0.25-0.64,0.6-1.2,1.05-1.68c0.46-0.48,1.01-0.86,1.66-1.15C23.15,4.79,23.88,4.65,24.71,4.65z
		 M24.77,6.86c-0.61,0-1.09,0.17-1.44,0.52c-0.34,0.35-0.57,0.85-0.68,1.5h4c0-0.25-0.03-0.5-0.1-0.74
		c-0.07-0.24-0.17-0.46-0.32-0.65c-0.15-0.19-0.34-0.34-0.58-0.46C25.4,6.92,25.11,6.86,24.77,6.86z"/>
	<path class="st0" d="M33.43,15.54V0.06h3.21v5.89c0.4-0.39,0.85-0.71,1.36-0.95c0.51-0.24,1.1-0.36,1.78-0.36
		c0.56,0,1.08,0.12,1.55,0.36c0.48,0.24,0.89,0.59,1.23,1.06c0.34,0.47,0.62,1.04,0.81,1.71c0.2,0.68,0.29,1.44,0.29,2.31
		c0,0.81-0.11,1.55-0.34,2.23C43.1,13,42.79,13.6,42.39,14.1c-0.4,0.5-0.89,0.9-1.45,1.18c-0.56,0.28-1.18,0.42-1.87,0.42
		c-0.32,0-0.6-0.03-0.85-0.09c-0.25-0.06-0.48-0.15-0.69-0.26c-0.21-0.11-0.4-0.25-0.58-0.41c-0.18-0.16-0.35-0.33-0.51-0.52
		l-0.11,0.54c-0.05,0.22-0.14,0.37-0.26,0.46c-0.13,0.08-0.29,0.12-0.5,0.12H33.43z M38.66,7.06c-0.23,0-0.45,0.02-0.64,0.07
		c-0.19,0.04-0.37,0.11-0.53,0.19c-0.16,0.08-0.31,0.19-0.45,0.31c-0.14,0.13-0.28,0.27-0.41,0.44v4.55
		c0.24,0.27,0.5,0.46,0.79,0.56c0.28,0.11,0.58,0.16,0.89,0.16c0.3,0,0.57-0.06,0.82-0.18c0.25-0.12,0.46-0.3,0.65-0.56
		c0.18-0.26,0.33-0.59,0.43-1.01c0.1-0.41,0.16-0.92,0.16-1.51c0-0.56-0.04-1.04-0.12-1.43c-0.08-0.39-0.2-0.7-0.35-0.94
		c-0.15-0.24-0.33-0.41-0.53-0.51C39.15,7.11,38.91,7.06,38.66,7.06z"/>
	<path class="st0" d="M54.04,7.16c-0.08,0.13-0.17,0.22-0.26,0.28c-0.09,0.06-0.21,0.08-0.36,0.08c-0.15,0-0.3-0.03-0.46-0.1
		c-0.15-0.07-0.32-0.14-0.49-0.21C52.3,7.14,52.1,7.07,51.88,7c-0.22-0.07-0.47-0.1-0.75-0.1c-0.41,0-0.72,0.08-0.94,0.23
		c-0.22,0.15-0.33,0.37-0.33,0.65c0,0.2,0.07,0.37,0.21,0.5c0.14,0.13,0.33,0.25,0.56,0.35c0.23,0.1,0.5,0.2,0.8,0.28
		c0.3,0.09,0.6,0.19,0.91,0.3c0.31,0.11,0.61,0.24,0.91,0.39c0.3,0.15,0.56,0.33,0.8,0.55c0.23,0.22,0.42,0.48,0.56,0.79
		c0.14,0.31,0.21,0.68,0.21,1.12c0,0.53-0.1,1.02-0.29,1.47c-0.19,0.45-0.48,0.83-0.86,1.16c-0.38,0.32-0.85,0.58-1.42,0.75
		c-0.56,0.18-1.21,0.27-1.94,0.27c-0.37,0-0.73-0.04-1.1-0.1c-0.37-0.07-0.72-0.16-1.06-0.28c-0.34-0.12-0.66-0.26-0.95-0.42
		c-0.29-0.16-0.54-0.34-0.74-0.52l0.74-1.18c0.09-0.14,0.2-0.25,0.32-0.33c0.12-0.08,0.29-0.12,0.49-0.12c0.19,0,0.35,0.04,0.5,0.12
		c0.15,0.08,0.31,0.17,0.48,0.27c0.17,0.1,0.37,0.19,0.6,0.27c0.23,0.08,0.52,0.12,0.87,0.12c0.25,0,0.46-0.03,0.63-0.08
		c0.17-0.05,0.31-0.12,0.41-0.21c0.1-0.09,0.18-0.19,0.23-0.3c0.05-0.11,0.07-0.22,0.07-0.34c0-0.21-0.07-0.39-0.22-0.53
		c-0.15-0.14-0.33-0.26-0.57-0.36c-0.23-0.1-0.5-0.19-0.8-0.28c-0.3-0.09-0.6-0.18-0.92-0.29c-0.31-0.11-0.61-0.24-0.91-0.4
		c-0.3-0.16-0.57-0.35-0.8-0.59c-0.23-0.24-0.42-0.53-0.57-0.87c-0.14-0.34-0.22-0.76-0.22-1.25c0-0.46,0.09-0.89,0.26-1.3
		c0.18-0.41,0.44-0.77,0.79-1.08c0.35-0.31,0.79-0.56,1.32-0.74c0.53-0.18,1.15-0.27,1.86-0.27c0.39,0,0.76,0.04,1.12,0.1
		c0.36,0.07,0.7,0.16,1.02,0.29c0.32,0.12,0.61,0.27,0.87,0.44s0.49,0.35,0.69,0.55L54.04,7.16z"/>
	<path class="st0" d="M62.33,1.88c0,0.26-0.05,0.49-0.15,0.72c-0.1,0.22-0.25,0.42-0.42,0.59c-0.18,0.17-0.39,0.3-0.63,0.4
		c-0.24,0.1-0.49,0.15-0.76,0.15c-0.26,0-0.51-0.05-0.73-0.15c-0.23-0.1-0.43-0.23-0.6-0.4c-0.18-0.17-0.31-0.37-0.41-0.59
		c-0.1-0.22-0.15-0.46-0.15-0.72c0-0.26,0.05-0.51,0.15-0.73c0.1-0.23,0.24-0.43,0.41-0.6c0.18-0.17,0.38-0.31,0.6-0.4
		C59.86,0.05,60.1,0,60.37,0c0.27,0,0.52,0.05,0.76,0.14c0.24,0.1,0.45,0.23,0.63,0.4c0.18,0.17,0.32,0.37,0.42,0.6
		C62.28,1.38,62.33,1.62,62.33,1.88z M61.96,4.82v10.72h-3.2V4.82H61.96z"/>
	<path class="st0" d="M70.37,15.7c-0.51,0-0.96-0.07-1.35-0.22c-0.39-0.15-0.72-0.36-0.98-0.63c-0.26-0.27-0.47-0.6-0.6-0.99
		c-0.14-0.39-0.21-0.82-0.21-1.29V7.03h-0.91c-0.17,0-0.31-0.05-0.42-0.16c-0.12-0.11-0.18-0.26-0.18-0.47V5.15l1.71-0.33l0.63-2.61
		c0.08-0.33,0.32-0.5,0.7-0.5h1.67v3.13h2.6v2.19h-2.6v5.32c0,0.25,0.06,0.45,0.18,0.61c0.12,0.16,0.29,0.24,0.52,0.24
		c0.12,0,0.22-0.01,0.29-0.04c0.08-0.02,0.15-0.05,0.21-0.08c0.06-0.03,0.11-0.06,0.17-0.08c0.05-0.02,0.11-0.04,0.18-0.04
		c0.1,0,0.17,0.02,0.23,0.07c0.06,0.05,0.12,0.12,0.18,0.21l0.97,1.52c-0.41,0.31-0.88,0.54-1.4,0.7
		C71.46,15.62,70.92,15.7,70.37,15.7z"/>
	<path class="st0" d="M81.54,4.65c0.71,0,1.36,0.11,1.95,0.33c0.59,0.22,1.1,0.54,1.52,0.96c0.42,0.42,0.75,0.94,0.99,1.55
		c0.24,0.61,0.36,1.3,0.36,2.07c0,0.24-0.01,0.44-0.03,0.59c-0.02,0.15-0.06,0.27-0.11,0.36c-0.05,0.09-0.13,0.15-0.22,0.19
		c-0.09,0.03-0.21,0.05-0.36,0.05h-6.18c0.1,0.9,0.38,1.55,0.82,1.95c0.44,0.4,1.01,0.61,1.71,0.61c0.37,0,0.69-0.04,0.96-0.13
		c0.27-0.09,0.51-0.19,0.72-0.3c0.21-0.11,0.4-0.21,0.58-0.3c0.18-0.09,0.36-0.13,0.55-0.13c0.25,0,0.45,0.09,0.58,0.28l0.93,1.15
		c-0.33,0.38-0.69,0.69-1.07,0.93c-0.38,0.24-0.78,0.42-1.18,0.56c-0.4,0.13-0.81,0.23-1.21,0.28c-0.4,0.05-0.79,0.08-1.15,0.08
		c-0.75,0-1.46-0.12-2.11-0.37c-0.66-0.25-1.23-0.61-1.73-1.09c-0.49-0.48-0.88-1.08-1.17-1.8c-0.29-0.72-0.43-1.55-0.43-2.5
		c0-0.72,0.12-1.4,0.37-2.04c0.25-0.64,0.6-1.2,1.05-1.68c0.46-0.48,1.01-0.86,1.66-1.15C79.98,4.79,80.72,4.65,81.54,4.65z
		 M81.6,6.86c-0.61,0-1.09,0.17-1.44,0.52c-0.34,0.35-0.57,0.85-0.68,1.5h4c0-0.25-0.03-0.5-0.1-0.74
		c-0.07-0.24-0.17-0.46-0.32-0.65c-0.15-0.19-0.34-0.34-0.58-0.46C82.24,6.92,81.94,6.86,81.6,6.86z"/>
	<path class="st1" d="M90.26,15.54V4.82h1.99c0.2,0,0.37,0.04,0.5,0.13c0.13,0.09,0.23,0.22,0.28,0.4l0.19,0.62
		c0.21-0.19,0.42-0.37,0.64-0.54c0.22-0.17,0.46-0.31,0.71-0.42c0.25-0.11,0.52-0.2,0.82-0.27c0.29-0.07,0.61-0.1,0.96-0.1
		c0.59,0,1.1,0.1,1.56,0.3c0.45,0.2,0.83,0.49,1.14,0.85c0.31,0.36,0.54,0.79,0.7,1.29c0.16,0.5,0.24,1.04,0.24,1.63v6.81h-3.2V8.72
		c0-0.52-0.12-0.93-0.36-1.23c-0.24-0.29-0.6-0.44-1.06-0.44c-0.35,0-0.68,0.08-0.99,0.23c-0.31,0.15-0.61,0.36-0.89,0.61v7.64
		H90.26z"/>
	<path class="st1" d="M111.72,15.54c-0.3,0-0.53-0.04-0.69-0.12c-0.16-0.08-0.28-0.25-0.39-0.52l-0.23-0.59
		c-0.27,0.23-0.53,0.43-0.77,0.6c-0.25,0.17-0.5,0.32-0.77,0.44c-0.27,0.12-0.55,0.21-0.85,0.27c-0.3,0.06-0.63,0.09-1,0.09
		c-0.49,0-0.93-0.06-1.33-0.19c-0.4-0.13-0.74-0.32-1.02-0.57c-0.28-0.25-0.49-0.56-0.65-0.93c-0.15-0.37-0.23-0.8-0.23-1.28
		c0-0.38,0.1-0.77,0.29-1.17c0.19-0.4,0.53-0.77,1-1.09c0.48-0.33,1.12-0.6,1.92-0.82c0.81-0.22,1.82-0.33,3.05-0.33V8.85
		c0-0.63-0.13-1.09-0.39-1.37c-0.26-0.28-0.63-0.42-1.1-0.42c-0.38,0-0.69,0.04-0.93,0.12c-0.24,0.08-0.46,0.18-0.65,0.28
		c-0.19,0.1-0.37,0.2-0.55,0.28c-0.18,0.08-0.39,0.12-0.64,0.12c-0.22,0-0.41-0.05-0.56-0.16c-0.16-0.11-0.28-0.24-0.37-0.4l-0.58-1
		c0.65-0.57,1.37-1,2.16-1.28c0.79-0.28,1.63-0.42,2.54-0.42c0.65,0,1.23,0.11,1.75,0.32c0.52,0.21,0.96,0.5,1.32,0.88
		c0.36,0.38,0.64,0.82,0.83,1.34c0.19,0.52,0.29,1.08,0.29,1.7v6.7H111.72z M108.04,13.58c0.41,0,0.78-0.07,1.08-0.22
		c0.31-0.14,0.62-0.38,0.94-0.7V11.2c-0.64,0-1.17,0.04-1.58,0.12s-0.74,0.19-0.98,0.31c-0.24,0.13-0.41,0.27-0.5,0.43
		c-0.09,0.16-0.14,0.33-0.14,0.52c0,0.37,0.1,0.63,0.3,0.78C107.36,13.51,107.65,13.58,108.04,13.58z"/>
	<path class="st1" d="M117.53,15.54V4.82h1.99c0.2,0,0.37,0.04,0.5,0.13c0.13,0.09,0.23,0.22,0.28,0.4l0.18,0.58
		c0.18-0.19,0.37-0.36,0.56-0.51c0.19-0.16,0.4-0.29,0.63-0.4c0.22-0.11,0.46-0.2,0.72-0.27c0.26-0.07,0.54-0.1,0.85-0.1
		c0.65,0,1.18,0.17,1.61,0.5c0.42,0.33,0.75,0.78,0.97,1.34c0.18-0.33,0.4-0.61,0.66-0.85c0.26-0.23,0.54-0.42,0.84-0.57
		c0.3-0.14,0.62-0.25,0.95-0.32c0.33-0.07,0.67-0.1,1-0.1c0.61,0,1.16,0.09,1.63,0.27c0.48,0.18,0.87,0.45,1.19,0.8
		c0.32,0.35,0.56,0.77,0.73,1.28c0.17,0.51,0.25,1.08,0.25,1.72v6.81h-3.2V8.72c0-1.11-0.48-1.66-1.43-1.66
		c-0.43,0-0.79,0.14-1.08,0.43c-0.29,0.29-0.43,0.7-0.43,1.24v6.81h-3.2V8.72c0-0.61-0.12-1.04-0.36-1.29
		c-0.24-0.25-0.6-0.37-1.07-0.37c-0.29,0-0.56,0.07-0.82,0.2c-0.26,0.13-0.5,0.31-0.73,0.53v7.75H117.53z"/>
	<path class="st1" d="M141.98,4.65c0.71,0,1.36,0.11,1.95,0.33c0.59,0.22,1.1,0.54,1.52,0.96c0.42,0.42,0.75,0.94,0.99,1.55
		c0.24,0.61,0.36,1.3,0.36,2.07c0,0.24-0.01,0.44-0.03,0.59c-0.02,0.15-0.06,0.27-0.11,0.36c-0.05,0.09-0.13,0.15-0.22,0.19
		c-0.09,0.03-0.21,0.05-0.36,0.05h-6.18c0.1,0.9,0.38,1.55,0.82,1.95c0.44,0.4,1.01,0.61,1.71,0.61c0.37,0,0.69-0.04,0.96-0.13
		c0.27-0.09,0.51-0.19,0.72-0.3c0.21-0.11,0.4-0.21,0.58-0.3c0.18-0.09,0.36-0.13,0.55-0.13c0.25,0,0.45,0.09,0.58,0.28l0.93,1.15
		c-0.33,0.38-0.69,0.69-1.07,0.93c-0.38,0.24-0.78,0.42-1.18,0.56c-0.4,0.13-0.81,0.23-1.21,0.28c-0.4,0.05-0.79,0.08-1.15,0.08
		c-0.75,0-1.46-0.12-2.11-0.37c-0.66-0.25-1.23-0.61-1.73-1.09c-0.49-0.48-0.88-1.08-1.17-1.8c-0.29-0.72-0.43-1.55-0.43-2.5
		c0-0.72,0.12-1.4,0.37-2.04c0.25-0.64,0.6-1.2,1.05-1.68c0.46-0.48,1.01-0.86,1.66-1.15C140.43,4.79,141.16,4.65,141.98,4.65z
		 M142.05,6.86c-0.61,0-1.09,0.17-1.44,0.52c-0.34,0.35-0.57,0.85-0.68,1.5h4c0-0.25-0.03-0.5-0.1-0.74
		c-0.07-0.24-0.17-0.46-0.32-0.65c-0.15-0.19-0.34-0.34-0.58-0.46C142.68,6.92,142.39,6.86,142.05,6.86z"/>
</g>
</svg>
