<svg xmlns="http://www.w3.org/2000/svg" viewBox="0 0 89 89"><defs><style>.cls-1{fill:#fec00f;}.cls-2{fill:#35424b;}</style></defs><title>Ресурс 10</title><g id="Слой_2" data-name="Слой 2"><g id="Layer_15" data-name="Layer 15"><path class="cls-1" d="M44.5,89A44.5,44.5,0,1,1,89,44.5,44.55,44.55,0,0,1,44.5,89Z"/><path class="cls-2" d="M47.1,65.7H41.9a2.43,2.43,0,0,1-2.43-2.43V59.91a1.09,1.09,0,0,0-.66-.91l-1.58-.65a1,1,0,0,0-1.17.15l-2.38,2.38a2.5,2.5,0,0,1-3.43,0L26.57,57.2a2.44,2.44,0,0,1,0-3.44L29,51.39a1.14,1.14,0,0,0,.18-1.11l-.66-1.59a1.15,1.15,0,0,0-.93-.72H24.17a2.42,2.42,0,0,1-2.43-2.42v-5.2a2.43,2.43,0,0,1,2.43-2.43h3.37a1.12,1.12,0,0,0,.91-.66l.65-1.58A1.15,1.15,0,0,0,29,34.51l-2.38-2.38a2.44,2.44,0,0,1,0-3.44L30.25,25a2.48,2.48,0,0,1,3.43,0l2.38,2.37a1.14,1.14,0,0,0,1.11.18l1.58-.65a1.13,1.13,0,0,0,.72-.94V22.62a2.43,2.43,0,0,1,2.43-2.43h5.2a2.43,2.43,0,0,1,2.43,2.43V26a1.11,1.11,0,0,0,.66.91l1.58.65a1,1,0,0,0,1.17-.15L55.32,25a2.49,2.49,0,0,1,3.43,0l3.68,3.69a2.37,2.37,0,0,1,.71,1.71,2.41,2.41,0,0,1-.71,1.72l-2.38,2.38a1.12,1.12,0,0,0-.18,1.1l.66,1.59a1.14,1.14,0,0,0,.93.72h3.37a2.43,2.43,0,0,1,2.43,2.43v5.2A2.42,2.42,0,0,1,64.83,48H61.46a1.08,1.08,0,0,0-.9.66l-.66,1.59a1.15,1.15,0,0,0,.15,1.17l2.38,2.37a2.44,2.44,0,0,1,0,3.44l-3.68,3.68a2.5,2.5,0,0,1-3.43,0L52.94,58.5a1.17,1.17,0,0,0-1.11-.18L50.25,59a1.12,1.12,0,0,0-.72.93v3.36A2.43,2.43,0,0,1,47.1,65.7ZM36.79,56.22a2.87,2.87,0,0,1,1.28.29l1.45.6a3.06,3.06,0,0,1,2,2.8v3.36a.41.41,0,0,0,.41.41h5.2a.41.41,0,0,0,.41-.41V59.91a3.1,3.1,0,0,1,2-2.83l1.46-.6a2.74,2.74,0,0,1,1.21-.26,3.11,3.11,0,0,1,2.16.85l2.38,2.38a.35.35,0,0,0,.58,0L61,55.77a.44.44,0,0,0,.12-.29A.41.41,0,0,0,61,55.2l-2.38-2.38a3.12,3.12,0,0,1-.56-3.44l.6-1.46a3.07,3.07,0,0,1,2.8-2h3.37a.4.4,0,0,0,.4-.4v-5.2a.41.41,0,0,0-.4-.41H61.46a3.1,3.1,0,0,1-2.83-2L58,36.45a3.09,3.09,0,0,1,.59-3.37L61,30.7a.43.43,0,0,0,.12-.29.41.41,0,0,0-.12-.28l-3.68-3.69a.34.34,0,0,0-.57,0l-2.38,2.37a3.2,3.2,0,0,1-3.44.56l-1.45-.6a3.05,3.05,0,0,1-2-2.8V22.62a.42.42,0,0,0-.41-.41H41.9a.42.42,0,0,0-.41.41V26a3.09,3.09,0,0,1-2,2.83l-1.45.6a2.74,2.74,0,0,1-1.21.26,3.11,3.11,0,0,1-2.16-.85l-2.38-2.37a.34.34,0,0,0-.57,0L28,30.13a.41.41,0,0,0-.12.28.43.43,0,0,0,.12.29l2.38,2.38a3.11,3.11,0,0,1,.56,3.43L30.34,38a3.08,3.08,0,0,1-2.8,2H24.17a.41.41,0,0,0-.4.41v5.2a.4.4,0,0,0,.4.4h3.37a3.11,3.11,0,0,1,2.83,2l.6,1.45a3.11,3.11,0,0,1-.59,3.38L28,55.19a.41.41,0,0,0,0,.58l3.68,3.68a.35.35,0,0,0,.57,0l2.38-2.38A3.09,3.09,0,0,1,36.79,56.22Zm7.71-5.41A7.87,7.87,0,1,1,52.37,43,7.87,7.87,0,0,1,44.5,50.81Zm0-13.71A5.85,5.85,0,1,0,50.34,43,5.85,5.85,0,0,0,44.5,37.1Z"/></g></g></svg>