<svg xmlns="http://www.w3.org/2000/svg" viewBox="0 0 90 90"><defs><style>.cls-1{fill:#fec00f;}.cls-2{fill:#35424b;}</style></defs><title>Ресурс 8</title><g id="Слой_2" data-name="Слой 2"><g id="Layer_15" data-name="Layer 15"><path class="cls-1" d="M45,90A45,45,0,1,1,90,45,45.05,45.05,0,0,1,45,90Z"/><rect class="cls-2" x="43.67" y="44.83" width="2" height="20.3"/><path class="cls-2" d="M44.67,45.82a.19.19,0,0,1,.19.2.18.18,0,0,1-.19.19.19.19,0,0,1-.2-.19.2.2,0,0,1,.2-.2m0-2A2.2,2.2,0,1,0,46.86,46a2.19,2.19,0,0,0-2.19-2.2Z"/><rect class="cls-2" x="31.81" y="22.51" width="25.71" height="2"/><path class="cls-2" d="M45.78,67.49H43.55L28.31,48l6.76-13.89V27.59H54.26v6.52L61,48Zm-1.26-2h.29L58.68,47.75,52.26,34.57v-5H37.07v5L30.65,47.75Z"/></g></g></svg>