<svg xmlns="http://www.w3.org/2000/svg" viewBox="0 0 89.33 89.33"><defs><style>.cls-1{fill:#fec00f;}.cls-2{fill:#35424b;}</style></defs><title>Ресурс 9</title><g id="Слой_2" data-name="Слой 2"><g id="Layer_15" data-name="Layer 15"><path class="cls-1" d="M44.67,89.33A44.67,44.67,0,1,1,89.33,44.67,44.71,44.71,0,0,1,44.67,89.33Z"/><path class="cls-2" d="M66.2,57H21a1,1,0,0,1-1-1V27.3a1,1,0,0,1,1-1H66.2a1,1,0,0,1,1,1V56A1,1,0,0,1,66.2,57ZM22,55H65.2V28.3H22Z"/><path class="cls-2" d="M62.1,52.94h-37a1,1,0,0,1-1-1V31.41a1,1,0,0,1,1-1h37a1,1,0,0,1,1,1V51.94A1,1,0,0,1,62.1,52.94Zm-36-2h35V32.41h-35Z"/><path class="cls-2" d="M72.54,63.36H15.4a1,1,0,0,1,0-2H72.54a1,1,0,0,1,0,2Z"/></g></g></svg>