<svg xmlns="http://www.w3.org/2000/svg" viewBox="0 0 89 89"><defs><style>.cls-1{fill:#fec00f;}.cls-2{fill:#35424b;}</style></defs><title>Ресурс 11</title><g id="Слой_2" data-name="Слой 2"><g id="Layer_15" data-name="Layer 15"><path class="cls-1" d="M44.5,89A44.5,44.5,0,1,1,89,44.5,44.55,44.55,0,0,1,44.5,89Z"/><path class="cls-2" d="M28.43,57.76c-.48,0-1,0-1.45,0a1,1,0,0,1-.92-.82,1,1,0,0,1,.54-1.1,11.24,11.24,0,0,0,4.64-4.07C24.91,49,20.88,43.62,20.88,37.83,20.88,29.1,29.77,22,40.69,22S60.5,29.1,60.5,37.83,51.61,53.65,40.69,53.65q-.54,0-1.08,0A15.92,15.92,0,0,1,28.43,57.76ZM40.69,24c-9.8,0-17.78,6.19-17.78,13.81,0,5.25,4,10.13,10.1,12.43a1,1,0,0,1,.59.57,1.06,1.06,0,0,1,0,.82l-.1.2a6.19,6.19,0,0,1-.32.63,13.11,13.11,0,0,1-2.63,3.13,13.17,13.17,0,0,0,8-3.73,1,1,0,0,1,.79-.31c10.39.62,19.19-5.77,19.19-13.74C58.47,30.21,50.5,24,40.69,24Z"/><path class="cls-2" d="M64.06,63.86a11.83,11.83,0,0,1-6.94-2.12l-.76.16c-7.43,1.34-14.66-2-17.21-7.9A1,1,0,0,1,41,53.2c2.18,5.07,8.49,7.89,15,6.71.38-.07.74-.16,1.1-.25a1,1,0,0,1,.87.19,9.8,9.8,0,0,0,6.18,2A10.47,10.47,0,0,1,62,59.76c-.13-.16-.24-.33-.35-.49l-.11-.17a1,1,0,0,1-.15-.78,1,1,0,0,1,.46-.64c4.5-2.8,7-7.46,6.27-11.88a10.81,10.81,0,0,0-7-8.24,1,1,0,0,1,.77-1.87,13,13,0,0,1,8.22,9.79c.76,4.92-1.69,10-6.3,13.31a8.69,8.69,0,0,0,4.05,2.64,1,1,0,0,1-.06,2A15.13,15.13,0,0,1,64.06,63.86Z"/><path class="cls-2" d="M32.66,37.48a.61.61,0,0,1,.61.62.61.61,0,0,1-.61.61A.61.61,0,0,1,32,38.1a.62.62,0,0,1,.62-.62m0-2A2.64,2.64,0,1,0,35.3,38.1a2.64,2.64,0,0,0-2.64-2.64Z"/><path class="cls-2" d="M40.75,37.48a.62.62,0,0,1,.62.62.62.62,0,0,1-1.24,0,.62.62,0,0,1,.62-.62m0-2a2.64,2.64,0,1,0,2.64,2.64,2.64,2.64,0,0,0-2.64-2.64Z"/><path class="cls-2" d="M48.84,37.48a.62.62,0,0,1,.62.62.61.61,0,0,1-.62.61.61.61,0,0,1-.61-.61.61.61,0,0,1,.61-.62m0-2a2.64,2.64,0,1,0,2.64,2.64,2.64,2.64,0,0,0-2.64-2.64Z"/></g></g></svg>